<svg xmlns="http://www.w3.org/2000/svg" xmlns:xlink="http://www.w3.org/1999/xlink" viewBox="88.84 96.64 304.66 308.42"><path d="M367.7471839409363,316.46194637213927C358.7405345961313,343.16833146151674,351.04667882711266,369.9653760655054,333.4177506315039,385.99416999347136C315.78882243589504,402.02296392143734,288.224821813696,407.2835071733807,269.3450154555506,404.23820441363665C250.4652090974051,401.19290165389265,240.26959700331327,389.8417528824613,226.5363311717408,379.2390605842789C212.80306534016836,368.6363682860965,195.53214577111524,358.78213246116303,172.38771365104625,348.633895286636C149.24328153097727,338.48565811210887,120.22533685989235,328.0434195879882,104.46824485908444,309.6731638560821C88.71115285827655,291.302908124176,86.2149135277457,265.0046351844846,91.0705545606744,238.6419182049434C95.92619559360308,212.2792012254023,108.13371698999133,185.85204020601142,118.11694458193062,163.7837228641451C128.10017217386994,141.71540552227876,135.85910596136029,124.00593185793697,152.77312450596355,112.20055980842102C169.68714305056685,100.39518775890508,195.75624635228303,94.49391732421498,220.72510921726177,97.3604684705853C245.69397208224055,100.22701961695562,269.56259451048186,111.86139234438639,289.2327931036063,114.3984051794942C308.9029916967307,116.93541801460204,324.3747664547382,110.37507095738692,340.7978563350154,118.53565763124963C357.22094621529254,126.69624430511233,374.5953512178392,149.5777647100529,384.1863808702022,171.6959957488958C393.77741052256516,193.8142267877387,395.5850648247445,215.169168460484,391.32917051553846,239.15450208423977C387.07327620633254,263.1398357079956,376.75383328574117,289.7555612827618,367.7471839409363,316.46194637213927" style="fill: rgb(254, 176, 88);"/></svg>