<svg xmlns="http://www.w3.org/2000/svg" xmlns:xlink="http://www.w3.org/1999/xlink" viewBox="98.58 98.84 293.09 293.32"><path d="M380.02698583469754,296.8573644671002C375.5542390282257,311.38754944737076,371.0538865607032,326.1196730363997,355.24942232771235,343.5720282776613C339.44495809472147,361.02438351892283,312.33638209626224,381.1969704124169,286.7431440111215,388.5695377292975C261.1499059259807,395.94210504617814,237.07200575415845,390.5146527864453,218.68363367212146,385.1393296571792C200.29526159008438,379.7640065279131,187.59641759783258,374.4408125291138,174.07958944191537,366.30976670167576C160.56276128599816,358.17872087423774,146.22794896641548,347.2398232181609,131.8767462631902,331.74864992396556C117.5255435599649,316.2574766297702,103.15795047309699,296.21402769745623,99.56179812905081,276.5233045107405C95.96564578500464,256.8325813240248,103.1409341837802,237.49458388290734,107.07527230813378,219.31468507021964C111.00961043248735,201.1347862575319,111.70299828241893,184.112986073274,124.40962960888108,170.17896446518176C137.11626093534326,156.24494285708954,161.83613573833603,145.39869982516302,181.42704901686616,134.29744098887355C201.01796229539627,123.19618215258409,215.4799140494637,111.83990751193166,235.33309226133304,105.10401182586175C255.18627047320237,98.36811613979182,280.43067514287355,96.25259940830442,299.063948883616,102.80972830955186C317.6972226243584,109.36685721079925,329.71936543617215,124.5966317447815,343.9896370873933,143.36147848134644C358.2599087386145,162.12632521791136,374.7783092292431,184.42624415705896,383.38639367658084,203.40029090123258C391.9944781239185,222.37433764540617,392.6922465279652,238.02251219460575,390.81856015727794,253.0107226549616C388.9448737865907,267.99893311531747,384.49973264116943,282.3271794868296,380.02698583469754,296.8573644671002" fill="#9ccdff"/></svg>