<svg xmlns="http://www.w3.org/2000/svg" xmlns:xlink="http://www.w3.org/1999/xlink" viewBox="103.04 116.11 309.15 304.49"><path d="M400.9904325946343,292.4348609408883C388.1278565767116,311.7834894356261,363.9807453317106,338.2366495943166,343.2230724444237,361.18613565997333C322.4653995571368,384.1356217256301,305.09716502756396,403.5814336982532,280.7328174652993,413.332561331702C256.36846990303474,423.08368896515077,225.00800930807827,423.14013225942534,206.2171449265942,412.7832418582259C187.4262805451101,402.42635145702644,181.20501237709834,381.6561273603531,164.38245450050337,368.5513570743387C147.55989662390843,355.4465867883243,120.13604903873023,350.0072703129688,109.27426146158552,327.836230182498C98.41247388444083,305.6651900520273,104.11274631532956,266.7624262664412,108.6423864747707,239.1382829865497C113.17202663421183,211.51413970665817,116.53103452220535,195.16861693246116,124.08435115497099,179.1120404008036C131.63766778773663,163.05546386914608,143.38529316527442,147.287833580028,159.38388648042815,135.7212937022126C175.38247979558187,124.15475382439718,195.63204104835162,116.7893043578844,221.84507144142458,116.1590490028445C248.0581018344976,115.5287936478046,280.23460136787384,121.63373240423756,298.57222036512644,126.03200371906327C316.90983936237905,130.430275033889,321.40857782350804,133.12187890710746,329.3904539363811,144.29995441838068C337.37233004925423,155.47802992965393,348.8373438138713,175.14257707898196,364.0209727988061,193.940003079691C379.2046017837408,212.73742908040003,398.10684598899314,230.66773393249014,406.76894769619713,245.75493477392772C415.4310494034012,260.84213561536535,413.85300861255695,273.08623244615046,400.9904325946343,292.4348609408883" style="fill: rgb(254, 88, 88);"/></svg>