<svg xmlns="http://www.w3.org/2000/svg" xmlns:xlink="http://www.w3.org/1999/xlink" viewBox="107.77 100.07 284.75 298.79"><path d="M389.9999553504026,293.3836906448144C385.7566994650337,310.8648635035966,375.28222955013666,328.99257922403154,356.9292530023204,349.9919516735388C338.57627645450424,370.9913241230459,312.3447932737688,394.8623533016253,284.11116982019865,398.3794288073413C255.87754636662848,401.89650431305716,225.64178264022357,385.05962614590953,204.30781176343282,379.0306475361599C182.97384088664202,373.0016689264101,170.54166285946545,377.7805898740583,158.30333200934498,369.0857005811406C146.06500115922452,360.39081128822295,134.02051748616023,338.2221117547394,128.4736724428192,319.88628735102304C122.92682739947816,301.5504629473067,123.87762098586039,287.0475136733576,118.75315006504881,264.65104652823317C113.62867914423721,242.25457938310885,102.42894371623181,211.96459436680917,110.7516628747713,186.59883146485114C119.07438203331083,161.23306856289312,146.91955577839522,140.7915277752767,165.08423946450844,125.89744524147433C183.24892315062166,111.00336270767197,191.73311677776374,101.6567384276836,212.598712255734,100.25702773272468C233.46430773370423,98.85731703776575,266.7113050625026,105.40451992783623,285.9682041192501,115.03255091433755C305.2251031759976,124.66058190083886,310.4919039606942,137.36944098377103,324.61317468228543,147.44654498174404C338.7344454038767,157.5236489797171,361.71018606236265,164.96899789273104,374.1282844293731,180.328157513576C386.5463827963835,195.68731713442097,388.4068388719184,218.96028746309705,390.3310459817655,239.01408762599985C392.2552530916125,259.0678877889026,394.24321123577164,275.9025177860322,389.9999553504026,293.3836906448144" style="fill: rgb(200, 124, 228);"/></svg>