<svg xmlns="http://www.w3.org/2000/svg" xmlns:xlink="http://www.w3.org/1999/xlink" viewBox="90.92 89.24 312.77 312.44"><path d="M387.7431681520516,316.13124190959115C380.2879424490252,335.1314134306144,369.00227862727684,350.25386421260237,355.21048449208007,365.68625308319383C341.41869035688325,381.11864195378513,325.1207659082381,396.8609689129799,303.5735280012156,400.68792748877536C282.02629009419314,404.5148860645707,255.22973872879334,396.42647625696685,231.2941253234786,390.75000518417437C207.35851191816383,385.0735341113819,186.28383647293415,381.80900177340095,168.59348956252975,370.8876110511412C150.90314265212535,359.96622032888143,136.59712427654628,341.3879712223429,125.09980480187097,325.3916631930458C113.60248532719568,309.39535516374866,104.9138647534242,295.9809882116928,98.47100451090274,275.35923315669083C92.0281442683813,254.73747810168888,87.83104435710986,226.90833494374078,93.78124962378719,203.79686854147826C99.73145489046453,180.68540213921574,115.82896533509063,162.2916124926388,131.3312538733625,145.66061734798066C146.83354241163437,129.0296222033226,161.740609043552,114.16142156058332,178.12908891575827,103.5686674074337C194.51756878796456,92.97591325428407,212.38746190045944,86.6586055907241,232.53385805280118,90.25004896948563C252.68025420514292,93.84149234824719,275.10315339733154,107.34168676933028,291.5714034890359,118.86901052638575C308.0396535807402,130.3963342834412,318.5532545719603,139.95078737646907,337.0128262017521,150.7388857000664C355.4723978315439,161.52698402366372,381.8779400999074,173.5487275778305,394.1081256766585,190.52706847765617C406.3383112534096,207.50540937748187,404.39314013854846,229.4403476229664,401.6081607889655,251.84676287573794C398.8231814393827,274.25317812850943,395.1983938550781,297.13107038856793,387.7431681520516,316.13124190959115"  fill="#ffd263"/></svg>