<svg xmlns="http://www.w3.org/2000/svg" xmlns:xlink="http://www.w3.org/1999/xlink" viewBox="97.06 108.53 307.46 301.91"><path d="M368.69454213326827,291.9990745592359C362.1226761501762,318.48124791733306,363.5769495080981,348.6994280081974,346.3222959884742,371.56636726423926C329.0676424688502,394.4333065202811,293.1040620716804,409.9490049415005,269.7243112019581,410.4326779689677C246.34456033223583,410.916350996435,235.5486389899611,396.36799863015017,215.69029214092845,384.33017441327553C195.83194529189586,372.292350196401,166.91117293610537,362.7650541289367,149.31507118240248,351.7816377246018C131.71896942869955,340.7982213202669,125.4475382770842,328.35868457906145,118.49077205571298,311.3107496751558C111.53400583434176,294.26281477125025,103.89190454321464,272.60648170464447,99.78351615970011,255.31972565080184C95.6751277761856,238.03296959695925,95.10045230028369,225.1157905558798,106.06029325346846,204.3255522368605C117.02013420665322,183.5353139178412,139.51449158892467,154.87201632088195,156.8603556559485,137.59999540849097C174.20621972297235,120.32797449609996,186.40359047474854,114.44723026827717,206.33712253279234,111.3813030286661C226.2706545908361,108.31537578905504,253.94034795514742,108.06426553765569,276.3974302917415,109.03905399754615C298.8545126283356,110.01384245743661,316.09898393721255,112.21452962861686,337.4266798946397,124.42699672424904C358.75437585206674,136.6394638198812,384.1652964580441,158.86371083996528,396.01845704445805,176.46526936507885C407.871617630872,194.06682789019246,406.1670181977224,207.04569792033553,398.01571581909457,224.90821624807208C389.8644134404667,242.77073457580866,375.2664081163605,265.5169012011387,368.69454213326827,291.9990745592359" style="fill: rgb(254, 88, 138);"/></svg>