<svg xmlns="http://www.w3.org/2000/svg" xmlns:xlink="http://www.w3.org/1999/xlink" viewBox="91.86 96.34 295.74 298.39"><path d="M378.36641400470324,323.80853050899606C370.62818848936126,345.5541403928617,351.5464936644258,357.61140436499255,331.1392124717585,369.37118738727116C310.73193127909116,381.13097040954966,288.99906371869196,392.5932724819758,263.5962866194795,394.4554787421105C238.19350952026699,396.31768500224524,209.12082288224124,388.5797954500884,184.21485961696803,375.8066022872005C159.30889635169478,363.0334091243126,138.56965645917404,345.22491235069356,123.16340342134305,330.10607496563733C107.75715038351204,314.9872375805811,97.68388420037076,302.5580595840877,93.79598657456165,283.45116648210205C89.90808894875256,264.34427338011636,92.20555988027566,238.5596651726385,97.8391085040828,213.36877583915967C103.47265712788995,188.1778865056809,112.44228344398114,163.58071604620113,128.37611861130264,149.61903470391198C144.30995377862413,135.6573533616228,167.20799779717592,132.33116113652417,191.77355215823658,122.52022298233219C216.33910651929725,112.70928482814016,242.57217122286679,96.41360074485475,266.3898972703416,96.34318444936854C290.20762331781634,96.27276815388234,311.61001070919633,112.42761964619534,333.1188389225653,129.67196760627937C354.62766713593436,146.91631556636335,376.24293617129234,165.2501599942184,383.88989514311993,183.6855829767885C391.5368541149476,202.12100595935865,385.21550302324476,220.6580074966439,383.85744937451915,245.6434861630868C382.4993957257936,270.62896482952976,386.10463952004517,302.06292062513035,378.36641400470324,323.80853050899606" fill="#a6de73"></path></svg>